# xmcd CD database file
#
# Track frame offsets:
#	150
#	31367
#	44298
#	58511
#	80168
#	101195
#
# Disc length: 1691 seconds
#
# Revision: 3
# Processed by: cddbd v1.5.1PL0 Copyright (c) Steve Scherf et al.
# Submitted via: CDex 1.51
#
DISCID=4c069906
DTITLE=Conestoga High School Jazz Ensemble - Spring Concert
DYEAR=2004
DGENRE=Jazz
TTITLE0=Conservation
TTITLE1=Take the A Train
TTITLE2=Brass Roots
TTITLE3=Summertime
TTITLE4=Pick Up the Pieces
TTITLE5=Spain
EXTD=YEAR: 2004
EXTT0=
EXTT1=
EXTT2=
EXTT3=
EXTT4=
EXTT5=
PLAYORDER=
